HIERARCHY
ROOT Hips
{
  OFFSET -331.093 83.8371 -317.828
  CHANNELS 6 Xposition Yposition Zposition Zrotation Xrotation Yrotation
  JOINT LeftUpLeg
  {
    OFFSET 8.64259 1.95398 -2.38835
    CHANNELS 3 Zrotation Xrotation Yrotation
    JOINT LeftLeg
    {
      OFFSET 43.7702 0 0
      CHANNELS 3 Zrotation Xrotation Yrotation
      JOINT LeftFoot
      {
        OFFSET 40.6238 0 0
        CHANNELS 3 Zrotation Xrotation Yrotation
        JOINT LeftToeBase
        {
          OFFSET 12.7242 0 0
          CHANNELS 3 Zrotation Xrotation Yrotation
          End Site
          {
            OFFSET 0 0 0
          }
        }
      }
    }
  }
  JOINT RightUpLeg
  {
    OFFSET -8.2249 1.95398 -2.59336
    CHANNELS 3 Zrotation Xrotation Yrotation
    JOINT RightLeg
    {
      OFFSET 43.5653 0 0
      CHANNELS 3 Zrotation Xrotation Yrotation
      JOINT RightFoot
      {
        OFFSET 40.6238 0 0
        CHANNELS 3 Zrotation Xrotation Yrotation
        JOINT RightToeBase
        {
          OFFSET 12.7242 0 0
          CHANNELS 3 Zrotation Xrotation Yrotation
          End Site
          {
            OFFSET 0 0 0
          }
        }
      }
    }
  }
  JOINT Spine
  {
    OFFSET 0.165834 0.87714 6.61349
    CHANNELS 3 Zrotation Xrotation Yrotation
    JOINT Spine1
    {
      OFFSET 7.38963 1.71661e-005 0
      CHANNELS 3 Zrotation Xrotation Yrotation
      JOINT Spine2
      {
        OFFSET 11.9445 1.14441e-005 0
        CHANNELS 3 Zrotation Xrotation Yrotation
        JOINT Spine3
        {
          OFFSET 14.7254 4.19617e-005 0
          CHANNELS 3 Zrotation Xrotation Yrotation
          JOINT Spine4
          {
            OFFSET 10.9679 0 0
            CHANNELS 3 Zrotation Xrotation Yrotation
            JOINT RightShoulder
            {
              OFFSET 2.46616 -1.6653 3.69651
              CHANNELS 3 Zrotation Xrotation Yrotation
              JOINT RightArm
              {
                OFFSET 13.0012 0 0
                CHANNELS 3 Zrotation Xrotation Yrotation
                JOINT RightForeArm
                {
                  OFFSET 28.7848 1.62311e-005 0
                  CHANNELS 3 Zrotation Xrotation Yrotation
                  JOINT RightHand
                  {
                    OFFSET 26.5688 1.62095e-005 0
                    CHANNELS 3 Zrotation Xrotation Yrotation
                    End Site
                    {
                      OFFSET 0 0 0
                    }
                  }
                }
              }
            }
            JOINT LeftShoulder
            {
              OFFSET 2.38034 -1.29275 -3.7523
              CHANNELS 3 Zrotation Xrotation Yrotation
              JOINT LeftArm
              {
                OFFSET 16.3182 6.07031e-005 0
                CHANNELS 3 Zrotation Xrotation Yrotation
                JOINT LeftForeArm
                {
                  OFFSET 27.0901 0 0
                  CHANNELS 3 Zrotation Xrotation Yrotation
                  JOINT LeftHand
                  {
                    OFFSET 24.5451 1.51738e-005 0
                    CHANNELS 3 Zrotation Xrotation Yrotation
                    End Site
                    {
                      OFFSET 0 0 0
                    }
                  }
                }
              }
            }
            JOINT Neck
            {
              OFFSET 5.0226 -0.0266342 0
              CHANNELS 3 Zrotation Xrotation Yrotation
              JOINT Head
              {
                OFFSET 6.69364 2.86102e-005 0
                CHANNELS 3 Zrotation Xrotation Yrotation
                End Site
                {
                  OFFSET 0 0 0
                }
              }
            }
          }
        }
      }
    }
  }
}
MOTION
Frames:	9
Frame Time:	0.0416667
16.7784 85.538 0.272894 -73.4533 -28.3454 -96.5531 -172.79 0.0496658 102.383 -22.6889 20.3012 2.56189 41.0494 -11.271 -6.65173 21.4351 -2.45218 21.3008 167.818 62.5422 94.1141 -59.5585 11.5939 3.86383 71.8591 -4.69063 -2.66819 43.4901 -2.09548 -7.29055 -0.444231 8.17535 -88.9171 10.5219 -0.387517 2.18672 -1.15082 -0.29091 2.20164 -23.6739 -1.02666 1.96932 -3.66129 -1.02667 1.9693 89.8353 -41.4807 -102.875 30.5784 -22.0497 26.9094 -20.2154 -17.4287 -55.7797 -10.6937 -0.394361 -2.9431 -93.4032 -44.9434 72.7181 -16.6917 4.40789 20.4556 17.1823 -1.00148 -80.5141 20.1603 2.03737 6.28197 -6.23741 -12.4139 3.8429 16.0648 -13.6152 -6.79746 
7.37403 85.7853 3.13035 -73.0649 -23.8639 -99.2219 -175.076 2.47185 97.4253 -38.2709 21.8578 3.02267 45.8709 -9.06808 -3.25948 23.0745 -1.26521 18.3416 168.331 58.0741 94.7742 -63.2395 10.402 2.95589 78.3683 -7.30355 -3.61547 30.252 -0.284929 -2.28732 -0.291324 7.96047 -89.1289 10.9513 -0.176709 1.74961 -0.72089 -0.0995413 1.75568 -23.2477 -0.694286 1.61569 -3.23506 -0.694321 1.61568 90.5107 -42.0366 -101.583 23.834 -21.2052 20.1779 -19.8909 -15.263 -57.5622 -14.7643 -0.455276 -2.74437 -94.3818 -46.1208 71.566 -24.0441 10.3472 25.18 18.8202 3.47713 -70.2181 17.2514 1.64186 5.54451 -5.89611 -11.9239 5.02933 16.4156 -12.6804 -2.98585 
-1.74796 85.8177 4.88201 -72.6429 -17.2089 -99.6472 -173.402 9.45279 95.3361 -56.4648 20.2562 1.66646 48.7442 -8.52439 -3.80016 24.0394 -0.327245 18.1319 170.962 51.1216 97.7141 -63.7452 11.6334 1.45985 83.9326 -9.21527 -4.14911 31.4622 -0.358475 -2.24197 0.170222 7.9516 -89.3878 10.9659 0.622298 1.15844 -0.705358 0.672692 1.12994 -23.2367 0.245402 1.29189 -3.22403 0.245408 1.2919 90.6894 -41.3821 -101.459 19.229 -19.5145 11.2331 -21.0769 -13.3461 -61.275 -19.0684 -0.721508 -1.30045 -94.4013 -46.642 71.6968 -31.1398 13.824 28.1818 18.3884 9.36365 -60.6509 12.0814 0.881917 3.41037 -2.89535 -10.911 4.13268 16.3283 -10.9417 1.42507 
-10.6215 86.3736 6.08488 -72.7045 -10.527 -99.9708 -170.688 19.1062 93.808 -72.0958 21.9719 0.638124 49.2384 -8.3016 -1.58133 29.5667 3.91244 13.3503 174.377 42.4282 98.9453 -61.0124 11.3592 -0.332607 85.9494 -10.8298 -4.63521 37.5748 -0.566116 -2.06028 0.699094 8.05906 -89.5413 10.7503 1.60373 0.764197 -0.919862 1.63581 0.692863 -23.4587 1.29993 1.21089 -3.4461 1.2999 1.21088 90.7033 -39.7355 -101.888 17.4187 -17.3417 2.39898 -24.1125 -9.98783 -67.5005 -22.0536 -0.840386 -1.07312 -94.1676 -46.7363 72.0808 -37.2371 16.4083 30.7206 17.3513 16.2154 -53.2536 4.79219 0.372087 3.10672 0.613733 -9.86282 4.47611 14.719 -9.82072 3.32342 
-19.5825 87.3546 6.86223 -71.285 -6.0803 -100.438 -169.061 32.1691 91.4625 -82.5292 21.3827 0.560417 49.9005 -7.80667 -0.194567 30.1846 4.37289 12.8664 175.523 34.1387 97.9455 -55.7607 7.68997 -1.13286 86.984 -11.6876 -4.77451 41.6709 -0.41904 -0.814582 1.128 7.88662 -89.6287 11.0968 2.4176 0.504724 -0.571948 2.43747 0.397762 -23.1213 2.1541 1.20828 -3.1087 2.1541 1.20827 91.3103 -36.6193 -101.702 19.1889 -15.1133 -3.71073 -28.2163 -5.10007 -76.8445 -23.8194 -0.88926 -1.12352 -93.7281 -46.9193 72.8035 -42.8782 17.6505 34.796 19.6294 22.396 -51.9986 -5.60583 -0.231976 0.637861 0.723212 -9.34789 5.00819 15.2263 -9.09912 5.15554 
-29.5066 89.1183 7.20426 -71.4745 -3.96965 -102 -169.143 42.0525 88.6904 -83.9708 17.4036 0.605402 50.6801 -7.54743 -0.593466 26.4775 1.11333 13.7798 175.328 23.5267 94.8509 -48.1527 1.87279 -2.09474 84.1626 -10.6359 -4.55959 43.8469 -0.386721 -0.470653 1.39217 7.80971 -89.4955 11.2474 3.00549 0.70782 -0.420169 3.03372 0.574734 -22.9767 2.65374 1.5789 -2.96401 2.65374 1.57889 92.1873 -35.0571 -100.543 21.067 -13.9969 -8.48296 -31.845 -1.24548 -87.2978 -24.0671 -1.27529 0.825404 -93.0235 -45.7942 73.5561 -50.217 19.8102 42.0827 28.9623 25.2476 -59.5459 -11.9807 -0.457375 -0.00904742 0.888659 -9.75636 3.49942 13.4436 -9.08613 7.26543 
-40.6073 91.8894 7.28877 -72.1927 -1.77888 -102.668 -170.32 47.4177 87.4881 -76.2574 14.881 -0.128907 50.9203 -7.49694 -0.376609 24.3544 -0.385339 16.2878 174.816 12.31 91.7068 -38.3916 -7.85879 -3.6931 71.9559 -4.84906 -2.66868 46.7751 -0.570913 -0.900329 1.62014 7.79676 -89.395 11.2704 3.50589 0.857054 -0.396032 3.54024 0.701727 -22.96 3.08613 1.87193 -2.94732 3.08613 1.87192 92.7448 -33.6376 -99.8953 22.4385 -14.0444 -11.1059 -34.2364 7.17405 -93.9923 -24.6422 -1.63083 2.51876 -92.3617 -44.2731 74.1502 -56.9009 19.9838 49.2954 31.7259 19.471 -64.9498 -15.3123 -0.448607 -1.26388 0.717545 -9.93714 3.00746 12.7194 -9.34921 6.3941 
-51.6866 94.3349 7.54178 -72.242 -0.803459 -102.641 -172.417 49.9893 86.8042 -61.7716 12.7899 -1.52949 49.4587 -8.85278 -2.04514 23.8224 -0.661482 17.5718 172.838 4.89839 88.3715 -30.1485 -14.8599 -4.11014 53.2214 4.37697 3.18235 44.98 0.561041 3.72042 1.74725 7.72498 -89.3415 11.4123 3.78401 0.929518 -0.253347 3.82122 0.761834 -22.822 3.32956 2.02483 -2.80931 3.32956 2.02483 93.2967 -32.5713 -99.1318 24.1077 -13.0465 -10.5857 -34.9985 11.7149 -104.103 -24.924 -1.93996 3.97736 -91.6652 -42.5226 74.7591 -63.1177 21.1389 54.3131 29.7743 12.8382 -67.3602 -16.0553 -0.123827 -4.06355 1.58882 -9.85564 2.97447 11.3968 -9.44168 5.67029 
-63.065 96.4895 7.9407 -72.4623 0.9375 -102.34 -174.18 47.8099 86.4947 -40.4436 15.1974 -3.65602 45.8126 -10.9346 -5.17355 22.812 -1.70096 17.3899 171.98 -0.184065 86.1727 -27.7147 -20.8059 -6.09065 44.5186 9.14494 7.62796 27.9218 -0.589639 -5.46472 1.9443 7.66142 -89.4061 11.5427 4.14589 0.75753 -0.121721 4.17523 0.574003 -22.7 3.72632 1.97007 -2.6874 3.72635 1.97007 93.5365 -31.4982 -98.9571 25.2345 -11.6021 -7.26024 -34.1196 14.7302 -109.363 -28.468 -2.32521 4.48039 -91.5017 -42.3359 74.9695 -66.8325 21.6624 57.2802 27.4491 6.70122 -69.7253 -17.7066 -0.0691273 -4.52883 0.190365 -9.88865 4.87847 12.2954 -9.98043 3.20913 
